<?xml version="1.0" encoding="iso-8859-1"?>
<!-- Generator: Adobe Illustrator 19.1.0, SVG Export Plug-In . SVG Version: 6.00 Build 0)  -->
<svg xmlns="http://www.w3.org/2000/svg" xmlns:xlink="http://www.w3.org/1999/xlink" version="1.1" id="Capa_1" x="0px" y="0px" viewBox="0 0 513.32 513.32" style="enable-background:new 0 0 513.32 513.32;" xml:space="preserve" width="512px" height="512px">
<g>
	<g>
		<g>
			<polygon points="103.734,355.046 54.541,305.853 24.596,335.797 103.734,414.933 182.871,335.797 152.926,305.853    " fill="#2250E2"/>
			<path d="M445.947,85.553C445.947,38.499,407.448,0,360.393,0S274.84,38.499,274.84,85.553s38.499,85.553,85.553,85.553     S445.947,132.608,445.947,85.553L445.947,85.553z M360.393,128.33c-23.527,0-42.777-19.249-42.777-42.777     s19.249-42.777,42.777-42.777c23.527,0,42.777,19.249,42.777,42.777S383.921,128.33,360.393,128.33z" fill="#2250E2"/>
			<polygon points="24.596,220.3 54.541,250.244 103.734,201.05 152.926,250.244 182.871,220.3 103.734,141.163    " fill="#2250E2"/>
			<path d="M435.253,192.495c-29.944,0-53.471,23.527-53.471,53.471V513.32h42.777V245.966c0-6.416,4.278-10.694,10.694-10.694     s10.694,4.278,10.694,10.694v117.636h42.777V245.966C488.723,216.022,465.196,192.495,435.253,192.495z" fill="#2250E2"/>
			<path d="M285.534,192.495c-29.944,0-53.471,23.527-53.471,53.471v117.636h42.777V245.966c0-6.416,4.278-10.694,10.694-10.694     c6.416,0,10.694,4.278,10.694,10.694V513.32h42.777V245.966C339.005,216.022,315.478,192.495,285.534,192.495z" fill="#2250E2"/>
		</g>
	</g>
</g>
<g>
</g>
<g>
</g>
<g>
</g>
<g>
</g>
<g>
</g>
<g>
</g>
<g>
</g>
<g>
</g>
<g>
</g>
<g>
</g>
<g>
</g>
<g>
</g>
<g>
</g>
<g>
</g>
<g>
</g>
</svg>
