<?xml version="1.0" encoding="iso-8859-1"?>
<!-- Generator: Adobe Illustrator 19.0.0, SVG Export Plug-In . SVG Version: 6.00 Build 0)  -->
<svg xmlns="http://www.w3.org/2000/svg" xmlns:xlink="http://www.w3.org/1999/xlink" version="1.1" id="Capa_1" x="0px" y="0px" viewBox="0 0 512 512" style="enable-background:new 0 0 512 512;" xml:space="preserve" width="512px" height="512px">
<g>
	<g>
		<path d="M405.333,0H106.667C83.146,0,64,19.135,64,42.667v426.667C64,492.865,83.146,512,106.667,512h298.667    C428.854,512,448,492.865,448,469.333V42.667C448,19.135,428.854,0,405.333,0z M192,42.667c23.521,0,42.667,19.135,42.667,42.667    S215.521,128,192,128s-42.667-19.135-42.667-42.667S168.479,42.667,192,42.667z M277.333,309.333    c0,5.896-4.771,10.667-10.667,10.667h-21.333v138.667c0,5.896-4.771,10.667-10.667,10.667h-85.333    c-5.896,0-10.667-4.771-10.667-10.667V320h-21.333c-5.896,0-10.667-4.771-10.667-10.667v-125.25    c0-12.698,7.438-24.167,18.938-29.219c16.833-7.385,42.021-16.198,66.396-16.198s49.563,8.813,66.396,16.198    c11.5,5.052,18.938,16.521,18.938,29.219V309.333z M402.208,295.542l-42.667,42.667c-2.083,2.083-4.813,3.125-7.542,3.125    c-2.729,0-5.458-1.042-7.542-3.125l-42.667-42.667c-3.042-3.052-3.958-7.635-2.313-11.625c1.646-3.99,5.542-6.583,9.854-6.583    h85.333c4.313,0,8.208,2.594,9.854,6.583C406.167,287.906,405.25,292.49,402.208,295.542z M404.521,228.083    c-1.646,3.99-5.542,6.583-9.854,6.583h-85.333c-4.313,0-8.208-2.594-9.854-6.583c-1.646-3.99-0.729-8.573,2.313-11.625    l42.667-42.667c4.167-4.167,10.917-4.167,15.083,0l42.667,42.667C405.25,219.51,406.167,224.094,404.521,228.083z" fill="#3B2DCD"/>
	</g>
</g>
<g>
</g>
<g>
</g>
<g>
</g>
<g>
</g>
<g>
</g>
<g>
</g>
<g>
</g>
<g>
</g>
<g>
</g>
<g>
</g>
<g>
</g>
<g>
</g>
<g>
</g>
<g>
</g>
<g>
</g>
</svg>
