<?xml version="1.0" encoding="iso-8859-1"?>
<!-- Generator: Adobe Illustrator 18.1.1, SVG Export Plug-In . SVG Version: 6.00 Build 0)  -->
<svg xmlns="http://www.w3.org/2000/svg" xmlns:xlink="http://www.w3.org/1999/xlink" version="1.1" id="Capa_1" x="0px" y="0px" viewBox="0 0 59.295 59.295" style="enable-background:new 0 0 59.295 59.295;" xml:space="preserve" width="512px" height="512px">
<g>
	<g>
		<circle cx="38.854" cy="6.812" r="5.112" fill="#339C3E"/>
		<circle cx="15.811" cy="51.697" r="2.342" fill="#339C3E"/>
		<circle cx="7.222" cy="51.697" r="2.342" fill="#339C3E"/>
		<rect x="4.44" y="45.867" width="16.25" height="1.61" fill="#339C3E"/>
		<path d="M59.295,44.624l-9.154-19.328c-0.955-3.062-1.91-6.123-2.867-9.185    c-0.623-2-2.114-3.562-4.196-3.599c-0.709-0.077-1.447,0.068-2.063,0.483c-1.568,0.82-2.807,2.615-2.455,4.388    c-1.496,3.276-3.086,6.496-5.049,9.535c-0.732,1.135-0.586,2.291-0.005,3.166h-5.994L19.9,42.867H5.66l-3.317-11.32h18.092    l-2.69,4.636H6.343v1.757h12.414l4.728-8.147H0l4.33,14.786l0.549,0.047h16.018l7.611-12.784h5.748v-0.957    c1.203,0.922,2.996,1.028,4.055-0.609c0.998-1.545,1.908-3.136,2.765-4.755c0.147,0.474,0.297,0.948,0.444,1.423l-3.025,17.682    h2.942c-0.498,3.239-1.008,6.446-1.766,8.876c-1.123,3.604,4.467,5.347,5.592,1.74c0.894-2.865,1.441-6.81,2.033-10.616h0.09    c0.248,3.557,0.512,7.144,0.291,9.901c-0.303,3.766,5.533,4.232,5.838,0.469c0.23-2.879-0.067-6.662-0.324-10.37h6.104    C59.295,44.626,59.295,44.624,59.295,44.624z" fill="#339C3E"/>
	</g>
</g>
<g>
</g>
<g>
</g>
<g>
</g>
<g>
</g>
<g>
</g>
<g>
</g>
<g>
</g>
<g>
</g>
<g>
</g>
<g>
</g>
<g>
</g>
<g>
</g>
<g>
</g>
<g>
</g>
<g>
</g>
</svg>
