<?xml version="1.0" encoding="iso-8859-1"?>
<!-- Generator: Adobe Illustrator 18.1.1, SVG Export Plug-In . SVG Version: 6.00 Build 0)  -->
<svg xmlns="http://www.w3.org/2000/svg" xmlns:xlink="http://www.w3.org/1999/xlink" version="1.1" id="Capa_1" x="0px" y="0px" viewBox="0 0 61.281 61.281" style="enable-background:new 0 0 61.281 61.281;" xml:space="preserve" width="512px" height="512px">
<g>
	<g>
		<circle cx="44.999" cy="6.404" r="6.404" fill="#339C3E"/>
		<path d="M57.743,50.854c1.126-0.608,2.226-1.355,3.275-2.283l-8.389-16.554l-0.887-13.263    c-0.172-2.42-1.947-4.157-4.696-4.069c-0.499,0.016-1.492,0.102-1.99,0.143c-1.176,0.097-2.117,0.591-2.642,1.007    c-3.467,2.753-13.785,10.393-13.785,10.393c-1.259,0.951-1.511,2.741-0.561,4.002c0.951,1.258,2.742,1.508,4,0.559l9.224-6.958    l0.583,8.142c-0.996,2.378-6.013,18.267-6.013,18.267s1.231,0.61,3.225,1.266l-2.148,5.952c-0.527,1.484,0.252,3.119,1.738,3.646    c1.486,0.524,3.119-0.252,3.646-1.739l2.354-6.546c2.363,0.331,5.007,0.402,7.679-0.088l2.709,6.726    c0.567,1.469,2.225,2.2,3.694,1.63c1.47-0.568,2.201-2.227,1.631-3.692L57.743,50.854z" fill="#339C3E"/>
		<circle cx="14.276" cy="59.435" r="1.843" fill="#339C3E"/>
		<circle cx="8.849" cy="59.436" r="1.842" fill="#339C3E"/>
		<path d="M7.762,50.878c0.248,0.006,4.277,0.35,4.523,0.375c1.644,0.177,2.148-0.835,2.473-1.371    c1.135-1.878,4.542-7.511,4.542-7.511c0.532-0.881,1.625-3.076-0.553-3.987c-0.849-0.354-2.203-0.089-3.21,0.175l-8.113,2.079    c-1.038,0.266-1.663,1.318-1.398,2.358c0.226,0.874,1.013,1.458,1.877,1.458c0.159,0,0.321-0.02,0.482-0.063l3.806-0.975    l-2.227,3.703c-4.388-0.382-7.414-0.005-9.583,5.948c-0.366,1.005,0.151,2.117,1.157,2.481c0.219,0.08,0.444,0.118,0.665,0.118    c0.791,0,1.535-0.486,1.821-1.272C5.321,50.716,6.687,50.851,7.762,50.878z" fill="#339C3E"/>
		<circle cx="19.793" cy="33.607" r="3.955" fill="#339C3E"/>
		<path d="M27.904,33.662c-0.928-0.535-2.113-0.221-2.651,0.707L15.5,51.213    c-0.468,0.81-1.361,1.277-2.293,1.201l-5.535-0.448c-0.004,0-0.008,0-0.011,0c-1.066,0-1.933,0.863-1.938,1.931    c-0.006,1.069,0.857,1.943,1.928,1.949l5.999,0.438c2,0.146,3.907-0.863,4.911-2.599l10.051-17.373    C29.146,35.384,28.831,34.198,27.904,33.662z" fill="#339C3E"/>
	</g>
</g>
<g>
</g>
<g>
</g>
<g>
</g>
<g>
</g>
<g>
</g>
<g>
</g>
<g>
</g>
<g>
</g>
<g>
</g>
<g>
</g>
<g>
</g>
<g>
</g>
<g>
</g>
<g>
</g>
<g>
</g>
</svg>
