<?xml version="1.0" encoding="iso-8859-1"?>
<!-- Generator: Adobe Illustrator 18.1.1, SVG Export Plug-In . SVG Version: 6.00 Build 0)  -->
<svg xmlns="http://www.w3.org/2000/svg" xmlns:xlink="http://www.w3.org/1999/xlink" version="1.1" id="Capa_1" x="0px" y="0px" viewBox="0 0 61.926 61.926" style="enable-background:new 0 0 61.926 61.926;" xml:space="preserve" width="512px" height="512px">
<g>
	<g>
		<path d="M24.229,59.412L24.229,59.412c-0.001,1.389,0.867,2.514,2.085,2.514    c1.22,0,2.207-1.125,2.207-2.514v-9.465h-4.292C24.229,49.947,24.229,59.412,24.229,59.412z" fill="#339C3E"/>
		<path d="M30.123,59.361c0,1.391,0.988,2.518,2.208,2.518c1.217,0,2.205-1.127,2.205-2.518l0.039-9.414    h-4.453L30.123,59.361L30.123,59.361z" fill="#339C3E"/>
		<circle cx="29.902" cy="17.184" r="4.109" fill="#339C3E"/>
		<path d="M43.9,17.042c-1.624-1.971-3.198-3.954-5.102-5.668c-0.026-0.024-0.058-0.04-0.086-0.063    c1.783-0.655,2.86-1.501,2.86-2.426h-1.985c0.5-0.449,0.82-1.094,0.82-1.819c0-1.356-1.101-2.456-2.455-2.456    S35.5,5.709,35.5,7.066c0,0.725,0.317,1.37,0.816,1.819h-2.312c0.5-0.449,0.82-1.094,0.82-1.819c0-1.356-1.1-2.456-2.456-2.456    c-1.355,0-2.456,1.099-2.456,2.456c0,0.725,0.32,1.37,0.82,1.819H28.46c0.5-0.449,0.82-1.094,0.82-1.819    c0-1.356-1.1-2.456-2.455-2.456s-2.456,1.099-2.456,2.456c0,0.725,0.32,1.37,0.819,1.819h-1.92c0.5-0.449,0.82-1.094,0.82-1.819    c0-1.356-1.1-2.456-2.456-2.456c-1.355,0-2.456,1.099-2.456,2.456c0,0.725,0.321,1.37,0.82,1.819h-2.611    c0,2.078,5.414,3.763,12.094,3.763c2.017,0,3.915-0.156,5.587-0.427c-0.344,0.74-0.279,1.634,0.525,2.359    c1.439,1.3,2.695,2.753,3.924,4.239c-1.29,1.923-2.842,3.523-4.787,4.787c-0.477-0.329-0.952-0.604-1.421-0.819v-0.001    c-3.747-1.941-7.584,0.251-7.584,0.251l0.001,0.004c-0.057,0.028-0.108,0.057-0.164,0.085c-0.295,0.045-0.602,0.147-0.912,0.335    c-5.208,3.152-8.033,8.405-7.1,14.484c0.474,3.08,5.146,1.767,4.677-1.291c-0.384-2.495,0.454-4.734,1.95-6.523    c0.056,0.25,0.093,0.408,0.093,0.408l-0.306,2.35c-4.061,9.526-3.183,16.516-3.174,16.602c0.027,0.244,0.234,0.432,0.482,0.432    h3.099h4.293h1.602h4.452h2.838c0.238,0,0.441-0.176,0.479-0.412c0.056-0.354,1.31-7.08-2.759-16.621    c-0.32-0.76-0.623-2.012-0.623-2.012l0.38-2.371c0.246-0.04,0.5-0.111,0.759-0.25c3.647-1.952,6.426-4.887,8.465-8.465    C44.796,18.837,44.561,17.845,43.9,17.042z" fill="#339C3E"/>
		<circle cx="35.5" cy="2.455" r="2.455" fill="#339C3E"/>
		<circle cx="29.819" cy="2.455" r="2.455" fill="#339C3E"/>
		<circle cx="24.065" cy="2.455" r="2.455" fill="#339C3E"/>
	</g>
</g>
<g>
</g>
<g>
</g>
<g>
</g>
<g>
</g>
<g>
</g>
<g>
</g>
<g>
</g>
<g>
</g>
<g>
</g>
<g>
</g>
<g>
</g>
<g>
</g>
<g>
</g>
<g>
</g>
<g>
</g>
</svg>
